<svg width="36" height="36" viewBox="0 0 36 36" fill="none" xmlns="http://www.w3.org/2000/svg">
<path fill-rule="evenodd" clip-rule="evenodd" d="M30.24 18.2898C30.24 17.3857 30.1589 16.5164 30.0082 15.6819H18V20.6138H24.8618C24.5663 22.2076 23.668 23.5579 22.3176 24.462V27.6611H26.4382C28.8491 25.4414 30.24 22.1728 30.24 18.2898Z" fill="#4285F4"/>
<path fill-rule="evenodd" clip-rule="evenodd" d="M17.9998 30.75C21.4423 30.75 24.3285 29.6083 26.438 27.6611L22.3175 24.462C21.1758 25.227 19.7153 25.679 17.9998 25.679C14.679 25.679 11.8682 23.4362 10.8656 20.4225H6.60596V23.7259C8.70391 27.8929 13.0157 30.75 17.9998 30.75Z" fill="#34A853"/>
<path fill-rule="evenodd" clip-rule="evenodd" d="M10.8658 20.4226C10.6108 19.6576 10.4659 18.8404 10.4659 18.0001C10.4659 17.1597 10.6108 16.3426 10.8658 15.5776V12.2742H6.60614C5.74261 13.9954 5.25 15.9427 5.25 18.0001C5.25 20.0575 5.74261 22.0047 6.60614 23.726L10.8658 20.4226Z" fill="#FBBC05"/>
<path fill-rule="evenodd" clip-rule="evenodd" d="M17.9998 10.3211C19.8718 10.3211 21.5525 10.9644 22.8738 12.2278L26.5308 8.57085C24.3227 6.51346 21.4365 5.25005 17.9998 5.25005C13.0157 5.25005 8.70391 8.10721 6.60596 12.2742L10.8656 15.5776C11.8682 12.5639 14.679 10.3211 17.9998 10.3211Z" fill="#EA4335"/>
</svg>
